<svg width="129" height="32" viewBox="0 0 129 32" fill="none" xmlns="http://www.w3.org/2000/svg">
<path d="M56.858 16.718V23H53.348V10.22H56.084L61.214 16.718V10.22H64.724V23H61.934L56.858 16.718ZM67.2783 23V10.22H76.0443V13.28H70.7883V15.404H75.0723V18.248H70.7883V23H67.2783ZM87.7349 13.28H84.0629V23H80.5529V13.28H76.8629V10.22H87.7349V13.28ZM95.6736 10.22H99.5976L103.666 23H100.102L99.3276 20.498H95.9256L95.1696 23H91.5876L95.6736 10.22ZM98.7696 18.158L97.6356 13.658L96.4476 18.158H98.7696ZM105.087 23V10.22H110.955C111.579 10.22 112.155 10.346 112.683 10.598C113.211 10.85 113.667 11.192 114.051 11.624C114.435 12.044 114.729 12.518 114.933 13.046C115.149 13.574 115.257 14.108 115.257 14.648C115.257 15.14 115.185 15.614 115.041 16.07C114.897 16.526 114.687 16.946 114.411 17.33C114.135 17.702 113.805 18.026 113.421 18.302L116.121 23H112.269L110.019 19.076H108.597V23H105.087ZM108.597 16.016H110.811C110.955 16.016 111.093 15.962 111.225 15.854C111.357 15.746 111.465 15.59 111.549 15.386C111.645 15.182 111.693 14.936 111.693 14.648C111.693 14.348 111.639 14.102 111.531 13.91C111.435 13.706 111.309 13.55 111.153 13.442C111.009 13.334 110.865 13.28 110.721 13.28H108.597V16.016ZM127.372 13.28H123.7V23H120.19V13.28H116.5V10.22H127.372V13.28Z" fill="white"/>
<rect x="0.25" width="32" height="32" rx="10" fill="url(#paint0_linear_3328_116)"/>
<path d="M15.5 8.16506C15.9641 7.89711 16.5359 7.89711 17 8.16506L22.6603 11.433C23.1244 11.701 23.4103 12.1962 23.4103 12.7321V19.2679C23.4103 19.8038 23.1244 20.299 22.6603 20.567L17 23.8349C16.5359 24.1029 15.9641 24.1029 15.5 23.8349L9.83975 20.567C9.37564 20.299 9.08975 19.8038 9.08975 19.2679V12.7321C9.08975 12.1962 9.37564 11.701 9.83975 11.433L15.5 8.16506Z" stroke="#24252D" stroke-width="3"/>
<defs>
<linearGradient id="paint0_linear_3328_116" x1="2.75" y1="2.5" x2="32.25" y2="32" gradientUnits="userSpaceOnUse">
<stop stop-color="#FF00B8"/>
<stop offset="1" stop-color="#FF005C"/>
</linearGradient>
</defs>
</svg>
