<svg width="574" height="622" viewBox="0 0 574 622" fill="none" xmlns="http://www.w3.org/2000/svg">
<path d="M479.779 523.911C483.405 523.911 486.344 521.177 486.344 517.803C486.344 514.43 483.405 511.695 479.779 511.695C476.153 511.695 473.213 514.43 473.213 517.803C473.213 521.177 476.153 523.911 479.779 523.911Z" fill="url(#paint0_linear_3328_158)"/>
<path opacity="0.53" d="M65.3336 236.846C68.5063 236.846 71.0783 234.453 71.0783 231.502C71.0783 228.55 68.5063 226.157 65.3336 226.157C62.1608 226.157 59.5888 228.55 59.5888 231.502C59.5888 234.453 62.1608 236.846 65.3336 236.846Z" fill="url(#paint1_linear_3328_158)"/>
<path d="M480.599 206.307C483.772 206.307 486.344 203.915 486.344 200.963C486.344 198.011 483.772 195.619 480.599 195.619C477.426 195.619 474.854 198.011 474.854 200.963C474.854 203.915 477.426 206.307 480.599 206.307Z" fill="#768599"/>
<path d="M32.5064 497.953C35.6792 497.953 38.2512 495.56 38.2512 492.609C38.2512 489.657 35.6792 487.264 32.5064 487.264C29.3337 487.264 26.7616 489.657 26.7616 492.609C26.7616 495.56 29.3337 497.953 32.5064 497.953Z" fill="#768599"/>
<path opacity="0.53" d="M8.70681 519.33C13.2393 519.33 16.9136 515.912 16.9136 511.695C16.9136 507.479 13.2393 504.061 8.70681 504.061C4.17431 504.061 0.5 507.479 0.5 511.695C0.5 515.912 4.17431 519.33 8.70681 519.33Z" fill="#768599"/>
<path d="M67.7957 559.031C71.4217 559.031 74.3612 556.296 74.3612 552.923C74.3612 549.55 71.4217 546.815 67.7957 546.815C64.1697 546.815 61.2303 549.55 61.2303 552.923C61.2303 556.296 64.1697 559.031 67.7957 559.031Z" fill="url(#paint2_linear_3328_158)"/>
<path d="M31.7833 290.047C35.4093 290.047 38.3487 287.312 38.3487 283.939C38.3487 280.566 35.4093 277.831 31.7833 277.831C28.1573 277.831 25.2178 280.566 25.2178 283.939C25.2178 287.312 28.1573 290.047 31.7833 290.047Z" fill="url(#paint3_linear_3328_158)"/>
<path opacity="0.53" d="M333.698 129.96C338.23 129.96 341.905 126.542 341.905 122.326C341.905 118.109 338.23 114.691 333.698 114.691C329.165 114.691 325.491 118.109 325.491 122.326C325.491 126.542 329.165 129.96 333.698 129.96Z" fill="#768599"/>
<path d="M514.41 577.184C519.849 577.184 524.258 573.082 524.258 568.022C524.258 562.962 519.849 558.86 514.41 558.86C508.971 558.86 504.562 562.962 504.562 568.022C504.562 573.082 508.971 577.184 514.41 577.184Z" fill="url(#paint4_linear_3328_158)"/>
<path d="M94.2215 47.3351C97.8475 47.3351 100.787 44.6006 100.787 41.2274C100.787 37.8542 97.8475 35.1196 94.2215 35.1196C90.5955 35.1196 87.656 37.8542 87.656 41.2274C87.656 44.6006 90.5955 47.3351 94.2215 47.3351Z" fill="url(#paint5_linear_3328_158)"/>
<path opacity="0.53" d="M508.666 464.19C511.839 464.19 514.411 461.797 514.411 458.846C514.411 455.894 511.839 453.501 508.666 453.501C505.493 453.501 502.921 455.894 502.921 458.846C502.921 461.797 505.493 464.19 508.666 464.19Z" fill="url(#paint6_linear_3328_158)"/>
<path d="M135.124 517.514C138.297 517.514 140.869 515.121 140.869 512.17C140.869 509.218 138.297 506.826 135.124 506.826C131.951 506.826 129.379 509.218 129.379 512.17C129.379 515.121 131.951 517.514 135.124 517.514Z" fill="#768599"/>
<path d="M541.494 71.7662C544.666 71.7662 547.238 69.3735 547.238 66.4219C547.238 63.4704 544.666 61.0776 541.494 61.0776C538.321 61.0776 535.749 63.4704 535.749 66.4219C535.749 69.3735 538.321 71.7662 541.494 71.7662Z" fill="#768599"/>
<path opacity="0.53" d="M565.293 54.9698C569.826 54.9698 573.5 51.5517 573.5 47.3351C573.5 43.1186 569.826 39.7004 565.293 39.7004C560.761 39.7004 557.086 43.1186 557.086 47.3351C557.086 51.5517 560.761 54.9698 565.293 54.9698Z" fill="#768599"/>
<path d="M506.205 12.2155C509.831 12.2155 512.77 9.48099 512.77 6.10777C512.77 2.73454 509.831 0 506.205 0C502.579 0 499.639 2.73454 499.639 6.10777C499.639 9.48099 502.579 12.2155 506.205 12.2155Z" fill="url(#paint7_linear_3328_158)"/>
<path d="M558.716 339.137C562.342 339.137 565.282 336.403 565.282 333.03C565.282 329.656 562.342 326.922 558.716 326.922C555.09 326.922 552.151 329.656 552.151 333.03C552.151 336.403 555.09 339.137 558.716 339.137Z" fill="url(#paint8_linear_3328_158)"/>
<path opacity="0.53" d="M240.303 621.465C244.836 621.465 248.51 618.047 248.51 613.83C248.51 609.614 244.836 606.195 240.303 606.195C235.771 606.195 232.096 609.614 232.096 613.83C232.096 618.047 235.771 621.465 240.303 621.465Z" fill="#768599"/>
<defs>
<linearGradient id="paint0_linear_3328_158" x1="474.239" y1="512.65" x2="485.471" y2="524.723" gradientUnits="userSpaceOnUse">
<stop stop-color="#FF00B8"/>
<stop offset="1" stop-color="#FF005C"/>
</linearGradient>
<linearGradient id="paint1_linear_3328_158" x1="60.4864" y1="226.993" x2="70.3143" y2="237.557" gradientUnits="userSpaceOnUse">
<stop stop-color="#FF00B8"/>
<stop offset="1" stop-color="#FF005C"/>
</linearGradient>
<linearGradient id="paint2_linear_3328_158" x1="62.2562" y1="547.769" x2="73.488" y2="559.843" gradientUnits="userSpaceOnUse">
<stop stop-color="#FF00B8"/>
<stop offset="1" stop-color="#FF005C"/>
</linearGradient>
<linearGradient id="paint3_linear_3328_158" x1="26.2437" y1="278.786" x2="37.4755" y2="290.859" gradientUnits="userSpaceOnUse">
<stop stop-color="#FF00B8"/>
<stop offset="1" stop-color="#FF005C"/>
</linearGradient>
<linearGradient id="paint4_linear_3328_158" x1="506.1" y1="560.292" x2="522.948" y2="578.402" gradientUnits="userSpaceOnUse">
<stop stop-color="#FF00B8"/>
<stop offset="1" stop-color="#FF005C"/>
</linearGradient>
<linearGradient id="paint5_linear_3328_158" x1="88.6819" y1="36.074" x2="99.9137" y2="48.1475" gradientUnits="userSpaceOnUse">
<stop stop-color="#FF00B8"/>
<stop offset="1" stop-color="#FF005C"/>
</linearGradient>
<linearGradient id="paint6_linear_3328_158" x1="503.819" y1="454.336" x2="513.647" y2="464.901" gradientUnits="userSpaceOnUse">
<stop stop-color="#FF00B8"/>
<stop offset="1" stop-color="#FF005C"/>
</linearGradient>
<linearGradient id="paint7_linear_3328_158" x1="500.665" y1="0.954338" x2="511.897" y2="13.0279" gradientUnits="userSpaceOnUse">
<stop stop-color="#FF00B8"/>
<stop offset="1" stop-color="#FF005C"/>
</linearGradient>
<linearGradient id="paint8_linear_3328_158" x1="553.177" y1="327.876" x2="564.409" y2="339.95" gradientUnits="userSpaceOnUse">
<stop stop-color="#FF00B8"/>
<stop offset="1" stop-color="#FF005C"/>
</linearGradient>
</defs>
</svg>
